<?xml version="1.0" encoding="UTF-8"?>
<svg width="32" height="32" viewBox="0 0 32 32" fill="none" xmlns="http://www.w3.org/2000/svg">
    <rect width="32" height="32" rx="8" fill="#389338"/>
    <path d="M24 16C24 20.4183 20.4183 24 16 24C11.5817 24 8 20.4183 8 16C8 11.5817 11.5817 8 16 8C20.4183 8 24 11.5817 24 16ZM16 22C19.3137 22 22 19.3137 22 16C22 12.6863 19.3137 10 16 10C12.6863 10 10 12.6863 10 16C10 19.3137 12.6863 22 16 22ZM16 20C13.7909 20 12 18.2091 12 16C12 13.7909 13.7909 12 16 12C18.2091 12 20 13.7909 20 16C20 18.2091 18.2091 20 16 20Z" fill="white"/>
    <path d="M16 4L18 8H14L16 4Z" fill="white"/>
    <path d="M16 28L14 24H18L16 28Z" fill="white"/>
    <path d="M4 16L8 14V18L4 16Z" fill="white"/>
    <path d="M28 16L24 18V14L28 16Z" fill="white"/>
</svg>
